<svg width="22" height="22" viewBox="0 0 22 22" fill="none" xmlns="http://www.w3.org/2000/svg">
<path d="M12.2332 3.36245L12.2336 3.36274L17.7 7.19157C17.7 7.1916 17.7 7.19164 17.7001 7.19167C18.1009 7.47258 18.496 7.94632 18.7917 8.51321C19.0873 9.08013 19.25 9.67618 19.25 10.1688V16.6105C19.25 18.6199 17.6205 20.25 15.6154 20.25H5.38462C3.38164 20.25 1.75 18.6125 1.75 16.601V10.0453C1.75 9.58987 1.89686 9.02433 2.16651 8.47605C2.43598 7.92815 2.79617 7.46241 3.16039 7.178L3.16056 7.17787L7.91323 3.46456C7.91356 3.46431 7.91389 3.46406 7.91421 3.4638C9.08744 2.55454 11.0129 2.50653 12.2332 3.36245ZM10.5 18.6622C11.3041 18.6622 11.9618 18.0025 11.9618 17.1996V14.3492C11.9618 13.5463 11.3041 12.8867 10.5 12.8867C9.69589 12.8867 9.03821 13.5463 9.03821 14.3492V17.1996C9.03821 18.0025 9.69589 18.6622 10.5 18.6622Z" stroke="#2C2F56" stroke-width="1.5"/>
</svg>
